# xmcd CD Database Entry
#
# Track frame offsets:
# 182
# 21870
# 30980
# 47902
# 55970
# 64777
# 78405
# 86107
# 115270
# 125047
# 141030
# 148357
#
# Disc length: 2134 seconds
#
# Revision: 1
# Processed by: cddbd v1.4PL0 Copyright (c) Steve Scherf et al.
# Submitted via: tcd 2.0b
#
DISCID=ae08540c
DTITLE=Pablo Milanes - canta a Jose Marti
DYEAR=1900
DGENRE=
TTITLE0=Yo soy un hombre sincero
TTITLE1=Mi verso es como un puñal
TTITLE2=Banquete de tiranos
TTITLE3=Al buen Pedro
TTITLE4=Si ves un monte de espumas
TTITLE5=Vierte corazon tu pena
TTITLE6=Eramos...
TTITLE7=Amor de ciudad grande
TTITLE8=Poetica
TTITLE9=El principe enano
TTITLE10=El enemigo brutal
TTITLE11=Es rubia...el cabello suelto
EXTD=
EXTT0=
EXTT1=
EXTT2=
EXTT3=
EXTT4=
EXTT5=
EXTT6=
EXTT7=
EXTT8=
EXTT9=
EXTT10=
EXTT11=
PLAYORDER=
